<mxfile host="app.diagrams.net" modified="2025-08-27T10:00:00.000Z" agent="python-pptx/diagrams.net" version="22.0.3" editor="draw.io">
  <diagram id="IaCommAuto" name="Immediate Action Flow">
    <mxGraphModel dx="1512" dy="868" grid="1" gridSize="10" guides="1" tooltips="1" connect="1" arrows="1" fold="1" page="1" pageScale="1" pageWidth="1920" pageHeight="1080" math="0" shadow="0">
      <root>
        <mxCell id="0"/>
<mxCell id="1" parent="0"/>
<mxCell value="Immediate Action Communication Approval Automation" id="11" style="shape=swimlane;rounded=1;horizontal=0;childLayout=stackLayout;startSize=30;fillColor=#dae8fc;strokeColor=#6c8ebf;fontStyle=1;align=center;" parent="1" vertex="1"><mxGeometry x="40" y="20" width="600" height="40" as="geometry"/></mxCell><mxCell value="Problem\nManual, email-based IA communications; inconsistent quality; no auditability" id="12" style="rounded=1;whiteSpace=wrap;html=1;fillColor=#f8cecc;strokeColor=#b85450;" parent="1" vertex="1"><mxGeometry x="40" y="90" width="280" height="80" as="geometry"/></mxCell><mxCell value="Business Objective\n• Standardize data\n• Automate routing/approvals\n• Retain evidence\n• Reduce client risk" id="13" style="rounded=1;whiteSpace=wrap;html=1;fillColor=#d5e8d4;strokeColor=#82b366;" parent="1" vertex="1"><mxGeometry x="360" y="90" width="300" height="100" as="geometry"/></mxCell><mxCell value="Platform Recommendation\nSalesforce (rec) • ServiceNow • SharePoint" id="14" style="rounded=1;whiteSpace=wrap;html=1;fillColor=#fff2cc;strokeColor=#d6b656;" parent="1" vertex="1"><mxGeometry x="700" y="90" width="320" height="80" as="geometry"/></mxCell><mxCell value="Form Submission\n• Web form (required fields)\n• Conditional logic\n• Attach CIA" id="15" style="shape=process;rounded=1;whiteSpace=wrap;html=1;fillColor=#e1d5e7;strokeColor=#9673a6;" parent="1" vertex="1"><mxGeometry x="40" y="220" width="300" height="100" as="geometry"/></mxCell><mxCell value="Within Quest Control?" id="16" style="rhombus;whiteSpace=wrap;html=1;rounded=1;fillColor=#ffe6cc;strokeColor=#d79b00;" parent="1" vertex="1"><mxGeometry x="380" y="230" width="160" height="80" as="geometry"/></mxCell><mxCell value="If Yes: add corrective action, root cause, secondary approval (EVP Cathy)" id="17" style="rounded=1;whiteSpace=wrap;html=1;fillColor=#fff2cc;strokeColor=#d6b656;" parent="1" vertex="1"><mxGeometry x="580" y="210" width="440" height="70" as="geometry"/></mxCell><mxCell value="Automated Routing\nETLO → Katie (SVP Esoteric Ops)\nNLO → SVP National Ops" id="18" style="shape=process;rounded=1;whiteSpace=wrap;html=1;fillColor=#dae8fc;strokeColor=#6c8ebf;" parent="1" vertex="1"><mxGeometry x="580" y="300" width="440" height="90" as="geometry"/></mxCell><mxCell value="Approvals\nApprove • Decline • Request Info" id="19" style="shape=process;rounded=1;whiteSpace=wrap;html=1;fillColor=#d5e8d4;strokeColor=#82b366;" parent="1" vertex="1"><mxGeometry x="40" y="360" width="300" height="80" as="geometry"/></mxCell><mxCell value="Documentation &amp; Retention\nStore requests, approvals, comments, attachments" id="20" style="shape=process;rounded=1;whiteSpace=wrap;html=1;fillColor=#f8cecc;strokeColor=#b85450;" parent="1" vertex="1"><mxGeometry x="380" y="360" width="360" height="90" as="geometry"/></mxCell><mxCell value="Notifications\nEmail requestor &amp; stakeholders at each step" id="21" style="rounded=1;whiteSpace=wrap;html=1;fillColor=#e1d5e7;strokeColor=#9673a6;" parent="1" vertex="1"><mxGeometry x="780" y="420" width="240" height="70" as="geometry"/></mxCell><mxCell value="Reporting Dashboard\nVolume, SLAs, declines, cycle time, root causes" id="22" style="rounded=1;whiteSpace=wrap;html=1;fillColor=#dae8fc;strokeColor=#6c8ebf;" parent="1" vertex="1"><mxGeometry x="780" y="510" width="240" height="70" as="geometry"/></mxCell>
        <mxCell id="23" value="" style="edgeStyle=orthogonalEdgeStyle;rounded=1;endArrow=block;html=1;strokeWidth=2;" edge="1" parent="1" source="12" target="13"><mxGeometry relative="1" as="geometry"/></mxCell><mxCell id="24" value="" style="edgeStyle=orthogonalEdgeStyle;rounded=1;endArrow=block;html=1;strokeWidth=2;" edge="1" parent="1" source="13" target="14"><mxGeometry relative="1" as="geometry"/></mxCell><mxCell id="25" value="" style="edgeStyle=orthogonalEdgeStyle;rounded=1;endArrow=block;html=1;strokeWidth=2;" edge="1" parent="1" source="14" target="15"><mxGeometry relative="1" as="geometry"/></mxCell><mxCell id="26" value="" style="edgeStyle=orthogonalEdgeStyle;rounded=1;endArrow=block;html=1;strokeWidth=2;" edge="1" parent="1" source="15" target="16"><mxGeometry relative="1" as="geometry"/></mxCell><mxCell id="27" value="Yes" style="edgeStyle=orthogonalEdgeStyle;rounded=1;endArrow=block;html=1;strokeWidth=2;" edge="1" parent="1" source="16" target="17"><mxGeometry relative="1" as="geometry"/></mxCell><mxCell id="28" value="" style="edgeStyle=orthogonalEdgeStyle;rounded=1;endArrow=block;html=1;strokeWidth=2;" edge="1" parent="1" source="17" target="18"><mxGeometry relative="1" as="geometry"/></mxCell><mxCell id="29" value="No" style="edgeStyle=orthogonalEdgeStyle;rounded=1;endArrow=block;html=1;strokeWidth=2;" edge="1" parent="1" source="16" target="18"><mxGeometry relative="1" as="geometry"/></mxCell><mxCell id="30" value="" style="edgeStyle=orthogonalEdgeStyle;rounded=1;endArrow=block;html=1;strokeWidth=2;" edge="1" parent="1" source="18" target="19"><mxGeometry relative="1" as="geometry"/></mxCell><mxCell id="31" value="Approved/Declined/Info" style="edgeStyle=orthogonalEdgeStyle;rounded=1;endArrow=block;html=1;strokeWidth=2;" edge="1" parent="1" source="19" target="20"><mxGeometry relative="1" as="geometry"/></mxCell><mxCell id="32" value="" style="edgeStyle=orthogonalEdgeStyle;rounded=1;endArrow=block;html=1;strokeWidth=2;" edge="1" parent="1" source="20" target="21"><mxGeometry relative="1" as="geometry"/></mxCell><mxCell id="33" value="" style="edgeStyle=orthogonalEdgeStyle;rounded=1;endArrow=block;html=1;strokeWidth=2;" edge="1" parent="1" source="20" target="22"><mxGeometry relative="1" as="geometry"/></mxCell>
      </root>
    </mxGraphModel>
  </diagram>
</mxfile>